<?xml version="1.0" standalone="no"?><!DOCTYPE svg PUBLIC "-//W3C//DTD SVG 1.1//EN" "http://www.w3.org/Graphics/SVG/1.1/DTD/svg11.dtd"><svg t="1756648515041" class="icon" viewBox="0 0 1090 1024" version="1.1" xmlns="http://www.w3.org/2000/svg" p-id="5409" xmlns:xlink="http://www.w3.org/1999/xlink" width="212.890625" height="200"><path d="M795.06590252 1015.22187429l-13.82647311-1.31880104c-11.75407275-1.13040047-116.30565586-11.6808058-167.48768042-35.83788342-9.63980472-4.54253569-29.0450142-13.70087306-70.4721004-112.45392094-29.13921399 78.97103824-53.79869281 99.29731379-70.28370085 107.5869182-47.9478225 24.09427807-101.01384881 29.84048119-151.22247223 32.45714942l-34.16321606 1.77933358-8.82340388-13.40780627c-2.83646808-4.30180203-9.7340045-14.99874026-12.59140643-21.35200979a428.64997907 428.64997907 0 0 1-15.99307425-41.10262016c-16.60014165-0.74313389-33.1270154-2.82600165-49.38175716-6.22766948-7.87093756-1.65373451-18.13874155-6.40560264-23.5604776-9.09553782l-9.15833835-4.54253472-4.0820012-9.36767177c-1.30833363-3.00393482-5.71480284-13.4182727-7.52553766-21.32061052-10.44573814-45.60328819-22.28354425-97.28771295-14.63240653-149.53733745 4.94026871-33.75501663 49.02588986-73.14110177 78.78263768-95.73864664-36.83221742-2.61666824-98.77398073-10.64460513-123.43345956-35.20988316-41.29101974-41.12355301-63.93043031-94.13724524-79.05477061-135.74226463-2.58526798-7.12780368-5.19146881-18.15967538-5.69387-20.29487626l-3.68426819-15.86747418 11.97387259-11.05280556c5.35893554-4.94026871 27.0040131-24.68041166 46.5557555-38.93601901-5.95553653-28.10301332-11.23073869-62.51742948-11.51333906-64.33863074l-2.93066789-19.2168089 16.97694182-9.47233798c19.34240896-10.79113804 65.13409773-36.23561741 72.52356792-39.58495212 32.17454907-14.569607 61.60682986-23.01621072 89.99244254-25.8422124 30.61501435-3.03533507 66.48429804 17.15487498 106.58211778 43.98095395-0.74313389-1.86306793-1.48626777-3.73660227-2.23986709-5.59966922-10.51900508-26.3027459-19.60407647-49.01542342-16.73620813-68.15896638 3.03533507-20.33674296 11.46100595-40.19201954 24.33501176-57.42016046a633.5267037 633.5267037 0 0 1 82.71810595-90.6727769c8.87573799-8.00700404 28.44841321-22.09514368 30.64641461-23.67561124l13.73227332-9.85960457 15.12434031 7.55693694c1.53860088 0.76406673 31.54654882 15.82560751 57.0433613 32.17454907A447.65431434 447.65431434 0 0 1 603.89214444 18.83659726l14.70567346-5.90320243 12.63327311 9.56653778c42.88195373 32.47808229 87.09317493 68.34736595 115.07058819 118.08498943 17.2595412 30.6882813 9.67120497 80.1433054-1.64326808 137.04013279 2.36546813-1.44440109 4.79373581-2.94113429 7.2429373-4.44833591 41.40615337-25.50727891 72.8061683-43.33202084 100.02998126-40.21295238 53.50562601 6.11253585 101.4011154 31.01274834 137.15526544 52.02982466 6.77193638 3.97733497 26.74234658 16.31754129 27.59014668 16.84087436l13.575273 8.38380419-0.28260037 15.95120757c-0.08373337 4.89840202-0.98386757 40.26528549-8.82340388 70.61863431 24.77461144 20.17974264 46.85928871 48.4606901 49.88415737 52.38569197l9.54560492 12.41347228-5.56826995 14.63240653c-1.72700046 4.53206927-10.53993792 27.57968025-14.55914057 36.03675139-21.13220995 44.39962077-55.31635984 90.09710975-89.23884223 119.27819043-19.01794291 16.35940797-53.11835844 16.62107451-99.24498068 15.19760726-3.70520202-0.11513361-7.44180332-0.23026726-10.9795386-0.31400063 2.48060078 1.87353435 5.08680259 3.82033565 7.74533652 5.78806978 31.96521565 23.81167772 75.74730259 56.41536006 79.91303815 104.30038302 4.01920167 46.22082201-2.31313404 96.38757973-19.89714229 157.86880856l-4.38553539 15.3336747-14.9778074 4.1866684c-23.15227818 6.57306939-47.42448943 8.95947135-71.40363389 7.10686985-13.67994021 41.62595321-31.21161535 61.52309648-33.4828827 63.9827644l-9.42000488 10.20500446z m-156.02667446-87.18737471c31.12788198 14.09860705 95.13157923 23.97914446 131.3462628 28.32281316 5.84040291-10.11080466 13.99393984-27.42267994 19.98087565-52.89855861l6.25906974-26.65861321 26.79467969 5.65200331c18.30620829 3.86220232 37.30321834 4.17620198 55.71409286 0.97340016 12.40300587-47.55008948 16.7676084-86.65357522 13.69040664-122.05185799-1.97820056-22.81734471-34.10041653-46.74415606-57.55622696-64.21303066-9.45140415-7.03360291-18.37947523-13.69040663-25.49681247-20.20067649-15.71047389-14.36027357-21.42527674-33.91201596-15.29180707-52.31242503 6.17533637-18.52600912 23.61281171-31.81868177 44.43102104-33.84921642 8.75013794-0.84780011 20.81821032-0.48146736 34.79121632-0.05233311 16.99787466 0.52333404 51.95655772 1.60140041 61.98363001-2.54340128 28.06114664-24.46061181 56.40489363-62.65349695 74.18776886-100.01951483 1.35020031-2.84693451 4.13433528-9.68167141 6.94986954-16.83040793-12.64373953-14.67427321-29.9870141-32.35248223-42.34815328-39.05115167l-23.52907735-12.76933958 11.68080481-24.08381166c5.79853622-11.95293876 9.15833736-35.65995026 10.57133917-54.59415979-4.94026871-3.02486767-9.90147125-6.0392699-12.4867402-7.56740336-30.97088167-18.21200849-72.0630344-39.75241885-115.10198845-44.6612883h-0.27213295c-11.65987197 0-48.31415622 22.57661104-64.02463108 32.25828243-13.95207316 8.59313762-26.00967913 16.0140081-35.90068395 20.45187659-14.71613991 6.58353678-31.75588223 4.59486881-44.46242129-5.20193621-12.79027244-9.84913814-19.09120887-25.93641218-16.45360778-41.96088669 1.11993405-6.80333663 2.73180088-14.8208071 4.58440239-24.10474452 3.75753514-18.7667428 8.44660373-42.12835341 10.42480528-63.04076353 2.73180088-28.86708006-1.18273358-37.53348462-1.98866797-38.97788568-20.15880979-35.83788343-53.30675902-64.77823141-87.20830856-91.06004349a391.69530084 391.69530084 0 0 0-52.27055834 28.42748037l-16.33847415 10.58180462-15.6162741-11.62847172c-14.08813963-10.49807125-35.27268368-22.43007715-49.49689078-30.06028104-4.91933585 3.72613488-9.53513751 7.35806994-12.00527185 9.58747062a576.70314323 576.70314323 0 0 0-75.38096984 82.63437358c-7.24293633 9.68167141-11.97387259 20.60887689-13.72180592 31.64074762 0.16746674 6.81380306 8.35240393 27.28661347 13.27173881 39.5744857 6.75100352 16.88274105 13.73227331 34.3411502 16.57920881 49.54922389 3.20280181 17.13394114-4.11340243 34.45628285-18.6620756 44.12748782a43.54135425 43.54135425 0 0 1-48.12575663 0.13606648c-4.77280197-3.14000129-10.17360518-6.84520332-15.89887446-10.7702042-18.54694198-12.7274729-67.84496575-46.53482264-84.71724036-44.87062171-22.22074372 2.20846782-45.90682238 9.11647067-72.42936814 21.12174352-3.77846897 1.78980098-26.71094633 14.36027357-51.19249099 27.94601301 2.99346839 17.79334166 7.67207057 43.78208793 11.84827254 59.07389498l6.07066917 22.28354425-20.72400953 10.20500444c-7.7872042 3.84126849-25.36074503 18.05500819-40.0245528 30.82434876 13.11473947 35.84835082 32.39434891 80.66663845 65.29109804 113.43778753 11.40867187 10.32013809 76.28110306 20.84960958 111.60611985 20.13787594 21.63461016-0.46053352 37.01015056 18.88187544 42.18068653 36.99968416 5.76713596 20.17974264-0.74313389 39.30235177-16.5687414 48.72235663-29.61021393 17.62587492-73.22483513 59.18902861-76.6893025 73.0573684-6.07066918 41.81435379 4.05060191 86.00464115 13.83693953 128.74006197 0.09419979 0.40820041 0.27213393 1.00480041 0.51286664 1.72700046 0.39773398 0.14653388 0.75360031 0.27213393 1.02573424 0.35586731 18.92374213 3.93546829 38.30801875 5.6834026 57.66089416 5.19146882l21.88581026-0.55473333 5.82993647 21.1008097c5.02400207 18.20154207 11.50287265 36.15188404 19.24820917 53.36955954 0.01046643 0.03140026 0.03140026 0.06280052 0.05233311 0.09419978l1.52813446-0.08373337c44.106554-2.30266762 90.26457649-7.10686985 128.98079465-26.56441242 2.16660114-1.08853377 21.92767695-13.05193994 50.10395722-97.57031432 5.43220248-16.30707487 21.70787709-26.81561255 42.47375431-27.42267895 21.60320989-0.63846669 39.81521938 9.52467109 46.35688849 25.88407907 27.91461373 69.78129964 45.99055575 98.08317996 52.26009192 104.01778263z m235.85597922-29.09734731v0.02093284zM248.29744027 636.97729315c0.38726658 0.01046643 0.76406673 0.02093383 1.16180074-1e-8h-1.16180074z m598.78782049-1.84213411z m89.18650912-47.17328932zM375.44656826 197.93181654z" fill="#8B0000" p-id="5410"></path><path d="M901.80501962 905.78235559c13.75320617-48.07342254 23.2569444-97.93664705 18.92374311-147.74753748-4.0401355-46.47202214-66.65176476-79.43157177-92.0648439-102.66758233-17.07114161-15.60580766-6.42653647-35.72275078 12.95773919-37.60675154 22.97434404-2.23986809 93.78137793 6.7300697 111.32351948-8.37333779 32.71881596-28.15534642 63.65829736-71.1105671 82.20523932-110.07798539 3.73660227-7.86047016 13.67994021-33.96435005 13.67994022-33.96435005s-33.639883-43.72975383-61.01022887-58.58196119c13.17754-27.16101341 14.15094015-82.00637233 14.15094016-82.00637234s-20.48327684-12.65420596-27.06681363-16.52687471c-39.10348575-22.99527788-81.06437243-43.20642077-126.13386017-48.34555648-28.71008072-3.27606777-88.65270866 43.24828746-114.82985449 54.96049255-11.55520575 5.17053595-23.89541109-4.55300213-21.83347716-17.03974136 5.58920279-33.95388265 26.94121259-113.90878746 9.79680404-144.39820276-25.26654523-44.92295482-66.47383161-78.37443726-107.56598435-109.4918518a418.29425375 418.29425375 0 0 0-71.55016778 37.07295108c-25.0467454-18.6620756-68.78696663-40.52695301-68.78696663-40.526953s-20.24254316 14.52774031-28.20767953 21.71834353A603.48526202 603.48526202 0 0 0 366.74876344 148.83265976c-9.84913814 13.17754-16.63154093 28.51121373-19.07027502 44.77642093-3.0458015 20.34720938 24.62807855 68.65089918 30.10214772 97.91571419 2.51200104 13.4182727-12.45533897 23.21507772-23.8535454 15.71047389-29.40088052-19.34240896-86.74777503-63.30243005-118.77579019-60.12056207-28.26001363 2.80506781-55.4419599 11.81687228-81.21090536 23.47674426-7.11733627 3.22373466-70.44070016 38.53828502-70.44070014 38.53828501s8.34193751 54.69882601 15.61627408 81.36790566c-18.73534254 9.2316043-59.34602793 46.7127558-59.3460289 46.7127558s2.59573441 11.16793917 4.73093626 17.06067518c16.63154093 45.77075494 37.98355172 91.09144374 72.49216766 125.46399321 20.94381036 20.86007699 103.96544954 28.8461472 131.92192996 28.2914139 10.45620456-0.20933342 22.80687731 26.45974622 10.7283385 33.63988202-26.13527917 15.55347455-85.99417472 65.14456414-90.05524306 92.91264498-6.79287021 46.44062187 3.74706871 93.4673783 14.2242071 139.21719938 1.37113414 5.97646938 5.90320244 16.40127467 5.90320244 16.40127467s11.30400565 5.61013565 16.85134176 6.77193734c21.16361021 4.43786851 42.84008704 6.40560264 64.46423077 5.85086933 5.42173607 19.62500933 12.35067274 38.84181824 20.70307668 57.40969405 2.25033451 5.00306923 10.44573814 17.43747534 10.44573814 17.43747435s11.52380549-0.59659999 18.13874155-0.94199989c48.010623-2.50153461 97.14118006-7.92327066 140.09640073-29.50554772 29.49508031-14.8208071 54.21735963-84.08924011 64.10836447-113.75178717 3.72613488-11.17840559 31.87101488-10.93767191 36.24608384 0 13.17754 32.95954865 45.3625555 109.07318595 64.93523072 118.31525571 48.24088927 22.76501062 158.20374203 33.2840157 158.20374301 33.28401668s21.24734357-23.01621072 33.72361539-76.14503658c27.71574673 5.85086932 56.8444943 4.84606891 84.08924011-2.8992686 0.02093383-0.08373337 0.05233311-0.17793316 0.07326693-0.26166652z" fill="#D41700" p-id="5411"></path><path d="M788.51376598 997.11453201l-5.69386999-0.54426689c-4.57393596-0.43960068-112.53765431-10.9795386-162.02407668-34.3306828-17.07114161-8.05933714-40.77815311-49.71669063-70.461634-123.82072612-2.84693451-2.10380061-12.04713954-2.30266762-15.15574057-0.36633373-22.88014424 68.37876622-45.63468846 107.47178456-69.56149981 119.49799126-45.22648803 22.72314393-96.26197968 28.19721311-144.68080309 30.71968056l-24.73274477 1.28740077-3.63193509-5.51593584c-1.4548675-2.20846782-8.82340389-13.49153964-11.32493948-19.04934218a411.85411064 411.85411064 0 0 1-18.84000875-50.52262405c-19.54127596-0.10466721-39.06161907-2.17706756-58.17376078-6.1858028-6.65680274-1.392067-17.51074129-6.688203-19.6145429-7.73487109l-3.76800155-1.87353435-1.67466737-3.86220135c-0.51286663-1.16180072-5.01353564-11.59707243-6.57307035-18.43180932-10.12127109-44.17982093-21.59274347-94.26284529-14.39167384-143.46666829 4.94026871-33.77594948 69.27889943-85.27197369 94.91177938-100.7521813 0.53380046-3.03533507-2.56433414-10.38293861-5.27520316-12.5704726h-1.18273359c-26.81561255 0-112.85165394-6.84520332-137.79373211-31.68261528-38.97788569-38.82088538-60.65436253-89.69937673-75.19256929-129.69252928-2.31313404-6.36373596-4.84606891-17.17580782-5.12866927-18.38994166l-1.51766803-6.53120368 4.92980227-4.55300211c3.74706871-3.45400192 33.3363488-30.58361508 53.86149333-43.83442104-6.70913683-28.35421342-13.39733985-72.00023487-13.71134047-74.03076856l-1.2036674-7.91280325 6.99173719-3.8936026c6.52073627-3.6424015 63.95136415-35.63901742 71.29896768-38.96741829 30.49988171-13.80554026 58.24702772-21.81254332 84.82190657-24.4501454 31.25348202-3.09813461 77.35917042 28.52168015 111.00951986 51.62162524 5.55780254 3.80986824 10.80160543 7.41040307 15.24994134 10.34107094 1.9468013 1.27693436 3.65286793 0.53380046 4.4902016-0.03139928 0.98386757-0.6489341 2.07240134-1.86306793 1.6851338-3.92500187-2.13520087-11.39820545-8.38380419-27.02494596-14.42307311-42.13882082-9.62933829-24.07334524-17.95034197-44.87062171-15.74187415-59.60769446 2.63760109-17.65727518 9.98520461-34.93775021 21.23687714-49.98882456a616.48696136 616.48696136 0 0 1 80.56197126-88.30730876c8.35240393-7.53600409 28.36467984-21.91721051 29.21248093-22.52427696l5.65200233-4.06106932 6.22767047 3.10860202c1.67466736 0.83733368 38.24521823 19.18540965 64.01416368 36.93688364a431.13581356 431.13581356 0 0 1 66.87156559-33.8806157l6.06020276-2.42826768 5.20193522 3.9354683c41.50035317 31.43141518 84.23577398 66.04469834 110.65365353 113.0295871 16.04540736 28.53214658 4.38553539 86.69544192-4.12386886 129.16919522-1.78980098 8.91760466-3.33886829 16.63154093-4.3436687 22.75454421-0.37680016 2.31313404 0.82686725 3.63193507 1.57000113 4.21806866 0.85826751 0.65940052 2.28173477 1.27693436 4.16573457 0.42913424 7.53600409-3.37026855 19.09120887-10.48760482 31.32674897-18.02360891 30.87668185-19.01794291 65.85629778-40.56881969 89.52144259-37.86841808 50.42842425 5.75666953 96.32477923 29.67301446 130.66592943 49.86322352 6.61493606 3.89360162 26.43881238 16.13960814 27.28661249 16.65247476l5.58920279 3.45400193-0.11513362 6.56260294c-0.03140026 2.10380061-0.96293373 46.94302208-11.36680518 77.149837 26.81561255 18.68300943 54.54182571 54.51042642 55.83969388 56.19556022l3.93546829 5.10773543-2.29220119 6.02880348c-0.40820041 1.07806735-10.15267135 26.62721295-14.04627295 34.82261658-20.20067648 42.45282047-52.81482523 86.07790808-85.10450793 113.86692078-14.48587363 12.45533897-46.99535616 12.4762728-87.99330815 11.22027228-12.08900621-0.37680016-23.51861095-0.72220005-29.73581497-0.11513363-6.01833606 0.58613359-9.7340045 3.93546829-10.74927134 6.9812698-1.4548675 4.37506896 2.16660114 8.5303371 4.45880232 10.62367227 5.65200233 5.17053595 13.80554026 11.24120513 22.44054359 17.66774162 29.46368104 21.94861078 69.82316632 51.9984254 73.33996875 92.50444455 3.83080207 44.14842067-2.31313404 92.42071119-19.33194254 151.91327301l-1.94680129 6.46840317-6.07066918 1.72700046c-25.50727891 7.24293633-52.50082561 8.95947135-78.7093717 5.0449359-13.20893928 48.02108943-32.8862827 69.76036679-33.77594948 70.72330052l-3.88313518 4.20760224zM542.20158122 813.66517759c10.92720549 0 24.68041166 4.01920167 29.28574689 15.54300716 28.54261398 71.3617672 50.66915792 108.16258534 59.14716192 112.17132057 39.42795181 18.60974249 124.39639326 28.97174725 148.12433762 31.57794906 6.04973632-8.54080451 19.04934217-29.9974815 27.6529472-66.64129933l2.57480057-10.9795386 11.03187172 2.32360146c23.84307798 5.03446949 48.73282306 4.64720192 72.39796885-1.08853379 14.9254743-53.91382544 20.28440985-97.75871388 16.83040793-137.54253202-2.62713467-30.19634751-36.7275512-55.58849279-64.13976472-76.0089701-9.10600425-6.7824028-17.70960829-13.18800642-24.21987814-19.14354295-10.75973876-9.83867172-14.78940684-22.90107809-10.7806716-34.94821664 4.11340243-12.36113917 16.04540736-21.25781 30.39521451-22.64987699 7.69300342-0.75360031 19.269143-0.39773398 32.68741571 0.02093284 22.1579442 0.68033337 63.39663083 1.9468013 72.24096757-5.65200233 30.00794793-25.83174595 60.40316244-66.55756498 79.31643812-106.28905099 2.28173477-4.78326937 7.49413741-18.03407534 10.95860576-26.97261284-9.42000488-11.52380549-33.67128326-39.79428554-53.38002596-50.48075736l-9.69213783-5.25426933 4.81466864-9.92240509c8.6873374-17.89800886 11.9320059-52.59502539 12.77980602-70.66049999-6.54167012-4.02966906-16.90367487-10.38293861-21.16360921-12.88447321-32.38388249-19.03887575-75.46470322-41.56315368-121.59132545-46.82788943-15.71047389-1.80026741-51.27622436 20.10647668-74.80530269 34.59235031-13.46013938 8.2896044-25.07814565 15.44880734-33.99574934 19.43660973-9.16880477 4.10293502-19.78200964 2.87833476-27.67388004-3.21326822-7.97560379-6.14393611-11.91107207-16.20240767-10.25733855-26.22947995 1.07806735-6.52073627 2.65853493-14.41260669 4.47973616-23.53954477 6.91847026-34.49814955 18.49460886-92.25324445 6.63586989-113.3226539-23.18367745-41.2177528-61.35562973-73.06783482-99.23451425-101.96631512a408.64712187 408.64712187 0 0 0-63.56409755 33.57708248l-6.7300697 4.35413513-6.42653648-4.7937358c-18.44227575-13.74273975-48.05248969-29.62068036-60.84276212-36.27748311-6.99173622 5.13913571-16.92460773 12.6228057-21.52994394 16.77807384a593.71671803 593.71671803 0 0 0-77.53710358 84.9893743c-8.9804042 12.00527285-14.8208071 25.68521207-16.89320844 39.57448569-1.27693436 8.56173736 7.37900378 30.21728135 14.34980714 47.62335644 6.45793674 16.15007457 13.13567331 32.84441601 15.67907364 46.46155569 2.02006726 10.79113804-2.41780124 21.27874383-11.58660502 27.37034586a27.08983996 27.08983996 0 0 1-29.94514742 0.09419979c-4.63673549-3.05626794-9.97473819-6.71960326-15.62674151-10.59227102-27.22381296-18.68300943-72.7643016-49.97835715-95.67584514-47.68615597-24.03147854 2.38640099-49.41315741 9.75493834-77.58943766 22.51381052-4.42740208 1.99913441-38.17195131 20.61934332-62.53836332 34.18414989 2.57480155 16.00354067 8.69780383 52.39615839 14.08814062 72.17816706l2.50153462 9.17927118-8.53033809 4.20760224c-12.36113917 6.09160301-38.01495196 28.08208047-51.59022399 40.2757529 0.85826751 3.26560136 1.87353435 6.87660358 2.72133445 9.22113787 13.71133948 37.74281803 34.03761601 85.62784099 69.79176608 121.22499074 15.83607395 15.77327441 89.64704265 25.58054586 123.55905959 24.94207915 12.22507269-0.28260036 22.39867787 12.41347227 26.0096791 25.0467454 3.70520202 12.96820658 0.198867 24.47107824-9.14787091 30.03934721-30.4894143 18.14920897-81.55630524 64.26536378-84.53930722 84.66490725-6.57306939 44.92295482 3.91453544 90.70417715 14.05674037 134.97819788 0.57566716 2.53293488 2.16660114 6.85566974 3.61100124 10.45620555 4.07153575 1.85260052 8.37333777 3.60053483 10.2782714 3.9982688 20.27394342 4.24946891 41.08168633 6.14393611 61.79522943 5.61013565l9.01180446-0.23026726 2.39686838 8.68733741a389.58312629 389.58312629 0 0 0 20.10647571 55.7454941c0.86873394 1.92586747 3.44353451 6.22766949 6.00786964 10.30967166l11.45053953-0.59660099c45.89635498-2.3968674 94.09537856-7.47320358 135.52246478-28.29141289 8.18493721-4.11340243 30.2382142-22.77547802 58.34122751-107.084518 3.19233442-9.56653777 13.65900637-15.76280797 27.32848015-16.16054098 0.42913327-0.01046643 0.85826751-0.02093383 1.28740078-0.02093384z" fill="#AD0000" p-id="5412"></path><path d="M322.4642763 801.89017201c-17.30140787-25.95734601-22.08467725-62.06736337-13.92067389-93.08011072 12.2774058-46.59762218 45.87542213-84.12064037 78.38490466-119.69685728-33.31541596-11.65987197-68.19036564-18.85047616-100.61611482-32.79208289-32.42574917-13.93114032-63.25009694-36.08908353-77.63130435-68.32643212-11.81687228-26.51207932-9.61887089-61.30329565 9.92240507-83.70197353 23.28834466-26.6900125 62.75816316-32.67694927 96.55504648-30.65688202 8.61407047 0.51286663 17.19674166 1.61186782 25.67474565 3.21326823 37.36601788 7.07546958 72.34563476 23.14181078 106.88565099 39.05115265 0.33493347-41.6678199-6.07066918-83.72290637 1.05713353-124.77319343s37.18808471-95.84331285 93.21617818-95.84331285c46.13708865 0 76.31250331 27.37034684 94.1163114 73.32950234 17.81427549 45.95915549 11.95293876 97.30864679 4.68906959 146.0624027 40.26528549-8.51987068 78.79310409-24.87927866 119.59219005-30.24868064 40.79908596-5.35893554 86.89430793 2.80506781 112.95632114 34.65514985 18.46320861 22.56614462 23.71747792 55.20122622 13.28220622 82.41457275-12.99960586 33.92248336-46.70228938 55.67222616-80.98063907 67.70889927-34.27834969 12.03667213-70.84890058 16.7257417-104.88651658 29.44274722 37.65908467 41.80388637 76.83583637 86.56984187 87.28157549 141.85480145 3.12953488 16.55827498 3.46446835 34.02714958-2.10380161 49.92602403-12.0262057 34.3411502-50.77382414 54.67789317-87.09317492 52.45895793-36.31935079-2.21893426-69.40449949-23.31974492-93.74997767-50.36562373-24.3454782-27.04587979-41.22822021-59.82749528-57.83882828-92.20091135-26.37601284 32.04894902-46.35688849 69.43589974-76.21830353 98.2611141-29.86141404 28.82521337-74.51223591 48.14668948-113.06098737 32.77114906-14.96734099-5.97646938-26.83654638-16.44314134-35.53435019-29.49508128z" fill="#EE5054" p-id="5413"></path><path d="M336.69894982 793.57963474c-45.09042156-70.37790063 15.85700778-142.40953477 61.88942922-192.81702518 8.66640456-9.49327082 4.64720192-23.43487757-7.27433659-27.53781357-56.77122736-19.57267622-142.22113518-29.62068036-168.39828103-93.54064523-10.37247119-25.31887834-5.0449359-56.82356046 17.73054211-73.42370114 22.94294476-16.7257417 54.65695933-18.25387519 81.89123872-15.56394099 41.11308658 4.07153575 79.81883834 22.36727761 116.87085658 39.43841923 11.05280555 5.08680259 24.75367861-0.82686725 24.7955453-14.22420711 0.17793316-61.55449575-17.50027487-142.95380166 36.45541724-188.81875737 19.84480917-16.87227461 48.57582373-19.70874269 72.32470094-9.54560393 25.08861207 10.73880493 40.66301948 36.08908353 49.22475684 60.93696192 14.61147368 42.40048735 9.12693808 88.41197596 2.7004016 131.83819659-1.85260052 12.51813948 7.01267006 23.16274461 20.27394342 20.27394341 61.10442964-13.31360647 134.82119757-52.7520257 195.64302684-17.60494207 25.38167886 14.66380679 39.75241885 44.27402072 33.17934949 73.33996877-6.7300697 29.75674782-32.33154839 49.17242373-58.67616196 61.39749543-37.55441845 17.41654151-80.16423824 20.94381036-118.93279052 35.07381668-11.85873897 4.32273586-15.9721414 17.87707503-7.27433659 27.53781357 22.32541094 24.80601171 44.69268856 49.88415736 61.54402933 78.85590462 15.87794062 27.30754632 31.24301461 65.38529783 19.38427663 96.90044638-8.92807109 23.74887819-34.88541709 38.52781861-59.37742917 40.30715218-31.2848813 2.27126735-60.91602907-13.55434015-83.14723922-34.45628286-29.40088052-27.65294622-47.84315628-64.43283053-66.03423192-99.88344835-4.51113544-8.78153721-19.33194253-11.37727259-25.88407907-3.33886729-29.28574689 35.99488373-51.39135798 81.54583881-89.40630897 109.50231823-33.35728264 24.53387876-82.52970637 34.25741685-109.52325305-4.62626807-12.00527285-17.30140787-40.58975255-0.84780011-28.45887964 16.63154093 15.33367373 22.08467725 37.01015056 37.87888451 64.01416366 41.85622047 26.60627912 3.91453544 53.32769187-3.31793446 76.52183674-16.36987539 49.91555762-28.08208047 75.27630265-80.81317234 110.16171878-123.68465866-8.62453786-1.10946762-17.24907476-2.21893426-25.88407907-3.3388683 34.70748295 67.64609875 84.62304058 151.45273949 171.71621549 150.88753878 34.5818829-0.21979984 69.43589974-17.03974135 88.37010927-46.44062188 22.74407777-35.31455036 13.61713969-81.26323844-2.18753399-117.35232295-18.07594201-41.25961949-48.68048996-75.61123611-78.51050471-108.74871893-2.42826767 9.17927119-4.84606891 18.35854237-7.27433659 27.53781359 69.67663343-25.39214528 170.40788187-27.71574673 198.46902851-111.70032062 11.8796728-35.57621689 1.27693436-77.48477047-25.91547933-103.21184924-26.156213-24.75367861-63.4280301-34.05854985-98.67978094-33.13748278-49.24569068 1.29786719-95.05831228 21.93814337-142.60840078 32.30014912l20.27394244 20.27394242c6.76146995-45.65562229 12.7274729-92.93357782 0.66986695-138.28566591-9.12693808-34.33068279-28.5949471-69.23703275-60.00542846-87.67930849-29.96608125-17.58400824-69.42543333-19.33194253-100.28118135-3.15046871-29.24388022 15.34414115-48.54442348 45.26835472-58.83316129 75.83103694-16.20240767 48.12575664-6.85566974 100.5114486-7.00220361 150.11300462 8.26867057-4.7414027 16.52687472-9.48280441 24.79554527-14.22420611-39.03021881-17.98174223-78.83497078-36.4344844-121.76925859-42.49468716-34.93775021-4.92980229-74.07263524-3.23420108-105.1377167 15.31274089-33.49334911 20.00180948-48.47115653 57.21082705-42.73542084 95.18391233 5.61013565 37.19855114 32.67694927 66.79829865 63.54316374 86.22444099 40.33855243 25.39214528 88.17124228 33.76548306 132.62319715 49.08869035-2.42826767-9.17927119-4.84606891-18.35854237-7.27433658-27.53781357-29.61021393 32.42574917-59.26229456 65.86676518-75.93570315 107.07405155-16.41174108 40.56881969-15.08247363 88.26544207 8.8862044 125.68379308 11.40867187 17.80380808 39.94081943 1.29786719 28.45887963-16.63154095z" fill="#BE2622" p-id="5414"></path><path d="M544.20071562 546.10564924l137.05059922 189.82355779M531.9923898 554.90079409l24.40513848-17.62168894 137.06106566 189.83088496-24.40513849 17.62168796z" fill="#FFD3A9" p-id="5415"></path><path d="M678.44624604 733.30207236m-20.54607638 0a20.54607637 20.54607637 0 1 0 41.09215374 0 20.54607637 20.54607637 0 1 0-41.09215374 0Z" fill="#FFD3A9" p-id="5416"></path><path d="M678.49858013 772.32182474c-12.12040549 0-24.07334524-5.61013565-31.70354911-16.1710074-6.10206943-8.45707114-8.55127094-18.77720921-6.88707001-29.07641445 1.66420093-10.28873783 7.23246989-19.32147612 15.68954104-25.42354554 17.44794177-12.60187284 41.89808715-8.65593715 54.49996 8.7920046s8.65593715 41.89808715-8.80247104 54.49995902a38.81251146 38.81251146 0 0 1-22.79641088 7.37900377z m-1.71653404-37.81608497c0.65940052 0.92106705 1.9468013 1.11993405 2.86786736 0.46053352 0.46053352-0.33493347 0.73266747-0.78500057 0.82686725-1.33973388s-0.03140026-1.06760093-0.36633373-1.52813445a2.04832729 2.04832729 0 0 0-2.86786736-0.46053353c-0.92106705 0.66986694-1.13040047 1.9468013-0.46053352 2.86786834z" fill="#FFD3A9" p-id="5417"></path><path d="M549.48638521 546.11611666L411.30538551 735.1232736M399.15357976 726.24439638L537.33876544 537.22991225l24.30047226 17.76508162L423.45509778 744.009478z" fill="#FFD3A9" p-id="5418"></path><path d="M412.93818618 731.63787143m-20.54607636 0a20.54607637 20.54607637 0 1 0 41.09215273 0 20.54607637 20.54607637 0 1 0-41.09215273 0Z" fill="#FFD3A9" p-id="5419"></path><path d="M412.85445283 770.68902407c-8.21633746 0-16.19194124-2.59573441-22.9534112-7.53600409-8.41520446-6.15440254-13.93114032-15.21854108-15.53254073-25.51774534-1.60140041-10.30967166 0.91060062-20.61934332 7.06500317-29.03454678 12.70653907-17.37467482 37.17761829-21.17407665 54.55229311-8.478004 8.41520446 6.15440254 13.93114032 15.21854108 15.53254072 25.51774534 1.60140041 10.29920523-0.91060062 20.60887689-7.06500315 29.03454678-6.15440254 8.41520446-15.21854108 13.93114032-25.51774634 15.53254073-2.03053466 0.31400062-4.06106834 0.47099994-6.07066918 0.47100093z m-1.58046758-40.25481907c-0.33493347 0.4500671-0.46053352 0.97340016-0.37680015 1.52813348 0.08373337 0.55473332 0.36633373 1.00480041 0.81639984 1.33973388 0.4500671 0.33493347 0.96293373 0.4500671 1.52813446 0.37680015 0.55473332-0.08373337 1.00480041-0.3558673 1.33973389-0.81639984 0.33493347-0.4500671 0.46053352-0.97340016 0.37680015-1.52813446s-0.36633373-1.01526684-0.81639985-1.33973388c-0.91060062-0.66986694-2.19800139-0.47099994-2.86786834 0.43960067z" fill="#FFD3A9" p-id="5420"></path><path d="M551.10871848 551.16105257L328.65007909 478.14555085M323.96101049 492.43883695l9.38651113-28.60122656 222.46387309 73.01340823-9.38651113 28.60122656z" fill="#FFD3A9" p-id="5421"></path><path d="M332.47041374 478.6165508m-20.54607636 0a20.54607637 20.54607637 0 1 0 41.09215373 0 20.54607637 20.54607637 0 1 0-41.09215373 0Z" fill="#FFD3A9" p-id="5422"></path><path d="M332.43901447 517.65723603c-4.02966906 0-8.11167026-0.62800025-12.14133932-1.9468013-9.91193767-3.25513492-17.95034197-10.16313778-22.6603444-19.468009s-5.50546942-19.88667585-2.25033451-29.78814711c6.70913683-20.45187658 28.81474694-31.63028218 49.26662352-24.92114533s31.63028218 28.81474694 24.91067892 49.26662352c-5.39033581 16.4222075-20.70307669 26.86794663-37.11481777 26.86794565z m0.03139927-41.09215273c-0.86873394 0-1.67466736 0.55473332-1.95726672 1.41300081-0.17793316 0.53380046-0.13606648 1.06760093 0.11513263 1.57000017s0.65940052 0.84780011 1.193201 1.02573424c1.07806735 0.3558673 2.23986809-0.24073368 2.5957344-1.30833461 0.3558673-1.07806735-0.24073368-2.23986809-1.30833363-2.59573439-0.20933342-0.07326695-0.42913327-0.10466721-0.63846768-0.10466622z" fill="#FFD3A9" p-id="5423"></path><path d="M546.81738385 554.25918718l0.70126623-234.13944618M531.80084999 554.22150647l0.69394001-234.13944518 30.10214772 0.09001381-0.69498675 234.13839844z" fill="#FFD3A9" p-id="5424"></path><path d="M548.24085111 323.89820997m-20.54607637 0a20.54607637 20.54607637 0 1 0 41.09215274 0 20.54607637 20.54607637 0 1 0-41.09215274 0Z" fill="#FFD3A9" p-id="5425"></path><path d="M548.25131755 362.93889521h-0.11513364c-10.42480528-0.03140026-20.22160933-4.12386886-27.56921285-11.51333908s-11.38773901-17.20720809-11.35633875-27.63201335c0.06280052-21.48807725 17.56307538-38.91508518 39.0302188-38.91508519h0.11513265c10.42480528 0.03140026 20.22160933 4.12386886 27.56921382 11.51333906s11.38773901 17.20720809 11.35633877 27.63201337l-18.49460885-0.0523331 18.49460885 0.05233311c-0.06280052 21.48807725-17.56307538 38.91508518-39.0302188 38.91508518z m0-41.09215275c-1.13040047 0-2.05146751 0.92106705-2.05146753 2.05146751 0 0.56520072 0.198867 1.05713353 0.5966 1.45486752s0.88966679 0.60706741 1.45486753 0.60706643c1.13040047 0 2.05146751-0.92106705 2.05146751-2.05146753 0-0.56520072-0.198867-1.05713353-0.59660001-1.45486751s-0.88966679-0.60706741-1.4548675-0.60706642z" fill="#FFD3A9" p-id="5426"></path><path d="M542.54698111 551.12965231l222.89824007-71.68623426M537.94583285 536.79554529L760.83988594 465.10407733l9.21695092 28.65565412-222.89300637 71.69251373z" fill="#FFD3A9" p-id="5427"></path><path d="M762.06448621 481.306485m-20.54607639 0a20.54607637 20.54607637 0 1 0 41.09215275 0 20.54607637 20.54607637 0 1 0-41.09215275 0Z" fill="#FFD3A9" p-id="5428"></path><path d="M762.03308693 520.35763764c-6.11253585 0-12.18320601-1.4548675-17.78287523-4.32273584-9.27347098-4.76233554-16.13960814-12.85307295-19.34240996-22.77547706-3.19233442-9.92240508-2.32360145-20.5042097 2.43873508-29.77768165 4.76233554-9.27347098 12.85307295-16.13960814 22.77547705-19.33194255 9.92240508-3.19233442 20.5042097-2.33406787 29.77768165 2.42826768s16.13960814 12.85307295 19.34240897 22.77547802c3.19233442 9.92240508 2.32360145 20.5042097-2.43873508 29.77768068-4.76233554 9.27347098-12.85307295 16.13960814-22.77547705 19.34240996a39.12232512 39.12232512 0 0 1-11.99480544 1.89446719z m0.05233311-41.11308658c-0.20933342 0-0.42913327 0.03140026-0.63846669 0.10466621-0.53380046 0.17793316-0.94200088 0.51286663-1.19320099 1.01526783s-0.30353321 1.02573424-0.12560005 1.57000016c0.16746674 0.53380046 0.51286663 0.94200088 1.01526683 1.19320098 0.50240021 0.26166653 1.03620068 0.30353321 1.57000115 0.12560006 0.53380046-0.17793316 0.94200088-0.51286663 1.1932-1.01526685s0.30353321-1.02573424 0.12560005-1.57000113c-0.16746674-0.53380046-0.51286663-0.94200088-1.01526684-1.19320099a1.97820056 1.97820056 0 0 0-0.93153346-0.23026627z" fill="#FFD3A9" p-id="5429"></path><path d="M703.5871922 848.54012827c-2.04100109 0-4.07153575-0.06280052-6.12300325-0.18840057-34.77028347-2.12473446-69.65569959-20.77634363-98.24018027-52.53222487-22.73361135-25.25607882-38.94648545-55.0860926-54.13362626-84.52884079-7.75580394 10.0270713-15.11387388 20.53560996-22.28354426 30.77201467-14.48587363 20.70307669-29.47414746 42.10742057-48.1571559 60.15196234-27.747147 26.78421327-75.84150337 51.7995584-120.08412385 34.15274964-15.38600782-6.13346968-28.72054715-17.18627524-38.56968528-31.95474825-18.01314151-27.0040131-23.68607767-64.71543089-14.81034068-98.4181144 12.03667213-45.69748897 43.53088781-82.4878397 73.07830126-114.99732125-10.11080466-3.28653519-20.39954347-6.28000259-30.4266138-9.20020502-20.26347602-5.90320244-41.22822021-12.00527285-61.11489605-20.5565428-27.6948129-11.90060565-64.23396452-34.00621674-81.04343862-71.69670068-13.57527302-30.44754761-9.06413757-67.75076596 10.9690712-90.71464356 28.12394715-32.2373486 75.92523674-34.45628285 101.91398203-32.90721556 8.71873767 0.52333404 17.63634135 1.63280067 26.51207932 3.31793447 34.89588352 6.61493606 67.49956585 20.77634363 99.02518084 35.22035056-0.15700031-10.38293861-0.63846669-20.84960958-1.10946664-31.06508145-1.26646695-27.747147-2.57480155-56.42582746 2.30266761-84.52884078 8.46753756-48.79562357 43.29015415-101.3069156 99.7055142-101.3069156 46.59762218 0 80.33170498 26.09341248 100.26024851 77.53710456 17.06067518 44.03328804 13.12520591 92.94404424 6.45793575 139.89753275 13.46013938-3.2446685 26.90981331-7.25340372 39.99315254-11.15747175 22.88014424-6.82426948 46.53482264-13.87880623 70.82796773-17.07114161 50.1039572-6.57306939 94.5663785 7.25340372 118.91185668 37.02061798 20.03320974 24.49201207 25.66427922 59.40882844 14.33934072 88.94577642-11.92153948 31.10694813-42.08648674 56.52002726-84.94750761 71.57110063-16.69434146 5.86133575-34.02714958 10.03753773-50.79475798 14.08813963-14.83127352 3.57960196-30.0916813 7.25340372-44.74502167 12.0785398 33.31541596 37.15668445 71.83276814 82.65530642 82.23663959 137.6785985 3.78893539 20.07507643 2.99346839 38.02541839-2.36546715 53.32769284-11.81687228 33.76548306-48.05248969 57.0433603-87.59557612 57.05382675zM547.57098418 687.28011734l4.57393497 8.92807108c16.19194124 31.57794809 32.9386158 64.2234971 56.86542714 90.79837695 26.26087922 29.17061426 57.95396093 46.28362254 89.24930965 48.18855617 35.56575047 2.18753399 70.12670052-18.49460886 80.47823886-48.06295612 4.58440239-13.10427306 5.20193622-28.75194741 1.85260052-46.52435621-10.41433788-55.09656-52.15542471-101.43251566-85.70110793-138.66246607l-6.47886958-7.19060321 9.07460398-3.3912024c18.14920897-6.7824028 37.12528421-11.35633876 55.48382658-15.78374082 16.45360777-3.96686856 33.46194984-8.06980357 49.52829105-13.70087306 22.67081083-7.95467092 62.82096368-26.83654638 77.01376952-63.84669695 9.66073756-25.2037457 4.85653534-54.99189279-12.23553911-75.88337004-21.43574317-26.20854611-61.42889571-38.28708492-107.00078461-32.30014814-23.2569444 3.05626794-46.39875518 9.95380436-68.77649922 16.63154094-16.33847414 4.87746918-33.24214902 9.91193767-50.30282421 13.52293988l-9.2839374 1.96773415 1.40253342-9.38860461c7.46273715-50.07255694 12.74840575-98.6588471-4.31226845-142.71306798-18.02360891-46.51388881-46.79648917-69.12190011-87.97237529-69.12190011-56.18509378 0-81.29463871 59.11576167-86.72684119 90.37971011-4.63673549 26.67954607-3.35980114 54.63602648-2.12473446 81.67143887 0.62800025 13.75320617 1.27693436 27.98787969 1.16180072 42.02368719l-0.08373336 10.20500446-9.26300456-4.27040176c-33.71314995-15.53254072-68.56716582-31.59888192-105.35751752-38.55921886-8.32100367-1.58046757-16.68387504-2.62713467-24.8478784-3.10860104-23.57094503-1.4025344-66.7668984 0.41866684-91.19610994 28.40654653-16.77807482 19.22727632-20.42047631 50.76335772-8.86527156 76.68930347 15.0720072 33.79688331 48.67002353 53.97662595 74.20870269 64.95616458 19.14354295 8.22680388 39.71055218 14.21373968 59.59722804 20.0122759 13.3659396 3.89360162 27.17147984 7.91280426 40.60021994 12.61234026l9.4200039 3.2970016-6.7300697 7.36853637c-30.3428814 33.20028233-64.73636472 70.83843414-76.87770306 116.9231897-7.94420353 30.16494825-2.95160171 63.78389742 13.03100612 87.75257544 8.47800399 12.71700648 19.40520948 21.81254332 32.48854871 27.02494596 38.40221854 15.31274088 81.12717197-7.3371371 106.03785088-31.40001492 17.77240881-17.15487498 32.38388249-38.02541839 46.5138888-58.22609488 9.22113787-13.17754 18.75627538-26.79467968 29.20201353-39.48028589l6.37420337-7.74533654z" fill="#9B0511" p-id="5430"></path></svg>